HIERARCHY
ROOT Model
{
	OFFSET 0 0 0
	CHANNELS 6 Xposition Yposition Zposition Zrotation Xrotation Yrotation
	JOINT Model1
	{
		OFFSET 0 -2.25479 2.99384
		CHANNELS 3 Zrotation Xrotation Yrotation
		JOINT Model2
		{
			OFFSET 12.111 0 0
			CHANNELS 3 Zrotation Xrotation Yrotation
			JOINT Model3
			{
				OFFSET 11.5502 0 0
				CHANNELS 3 Zrotation Xrotation Yrotation
				JOINT Model4
				{
					OFFSET 11.781 0 0
					CHANNELS 3 Zrotation Xrotation Yrotation
					JOINT Model5
					{
						OFFSET 20.0601 0 0
						CHANNELS 3 Zrotation Xrotation Yrotation
						JOINT Model6
						{
							OFFSET 11.1962 0 0
							CHANNELS 3 Zrotation Xrotation Yrotation
							End Site
							{
								OFFSET 0 0 0
							}
						}
					}
					JOINT Model7
					{
						OFFSET 10.8223 0.417534 3.51114
						CHANNELS 3 Zrotation Xrotation Yrotation
						JOINT Model8
						{
							OFFSET -6.07944 0 0
							CHANNELS 3 Zrotation Xrotation Yrotation
							JOINT Model9
							{
								OFFSET -0.277405 10.39 -0.051239
								CHANNELS 3 Zrotation Xrotation Yrotation
								JOINT Model10
								{
									OFFSET -3.43909 -0.282043 1.86679
									CHANNELS 3 Zrotation Xrotation Yrotation
									JOINT Model11
									{
										OFFSET 13.0269 0 0
										CHANNELS 3 Zrotation Xrotation Yrotation
										JOINT Model12
										{
											OFFSET 10.8866 0 0
											CHANNELS 3 Zrotation Xrotation Yrotation
											JOINT Model13
											{
												OFFSET 16.7317 0 0
												CHANNELS 3 Zrotation Xrotation Yrotation
												JOINT Model14
												{
													OFFSET 11.8292 0 0
													CHANNELS 3 Zrotation Xrotation Yrotation
													JOINT Model15
													{
														OFFSET 4.82751 -3.73566 -0.836517
														CHANNELS 3 Zrotation Xrotation Yrotation
														JOINT Model16
														{
															OFFSET 3.75311 -0.0582886 -0.0186462
															CHANNELS 3 Zrotation Xrotation Yrotation
															JOINT Model17
															{
																OFFSET 2.88689 0.0192337 0.014801
																CHANNELS 3 Zrotation Xrotation Yrotation
																End Site
																{
																	OFFSET 0 0 0
																}
															}
														}
													}
													JOINT Model18
													{
														OFFSET 9.72197 -3.06458 0.23877
														CHANNELS 3 Zrotation Xrotation Yrotation
														JOINT Model19
														{
															OFFSET 4.61131 0 0
															CHANNELS 3 Zrotation Xrotation Yrotation
															JOINT Model20
															{
																OFFSET 2.8969 -7.62939e-006 0
																CHANNELS 3 Zrotation Xrotation Yrotation
																End Site
																{
																	OFFSET 0 0 0
																}
															}
														}
													}
													JOINT Model21
													{
														OFFSET 9.54431 -0.745064 0.588928
														CHANNELS 3 Zrotation Xrotation Yrotation
														JOINT Model22
														{
															OFFSET 5.33978 0 0
															CHANNELS 3 Zrotation Xrotation Yrotation
															JOINT Model23
															{
																OFFSET 3.03619 7.62939e-006 0
																CHANNELS 3 Zrotation Xrotation Yrotation
																End Site
																{
																	OFFSET 0 0 0
																}
															}
														}
													}
													JOINT Model24
													{
														OFFSET 9.47758 1.51286 0.485107
														CHANNELS 3 Zrotation Xrotation Yrotation
														JOINT Model25
														{
															OFFSET 4.96136 7.62939e-006 0
															CHANNELS 3 Zrotation Xrotation Yrotation
															JOINT Model26
															{
																OFFSET 2.51965 0 0
																CHANNELS 3 Zrotation Xrotation Yrotation
																End Site
																{
																	OFFSET 0 0 0
																}
															}
														}
													}
													JOINT Model27
													{
														OFFSET 9.34247 3.34117 -0.239288
														CHANNELS 3 Zrotation Xrotation Yrotation
														JOINT Model28
														{
															OFFSET 3.28259 2.28882e-005 0
															CHANNELS 3 Zrotation Xrotation Yrotation
															JOINT Model29
															{
																OFFSET 2.1292 0 0
																CHANNELS 3 Zrotation Xrotation Yrotation
																End Site
																{
																	OFFSET 0 0 0
																}
															}
														}
													}
												}
											}
										}
									}
								}
							}
						}
					}
					JOINT Model30
					{
						OFFSET 10.8223 0.4179 -3.51108
						CHANNELS 3 Zrotation Xrotation Yrotation
						JOINT Model31
						{
							OFFSET 6.07944 0 0
							CHANNELS 3 Zrotation Xrotation Yrotation
							JOINT Model32
							{
								OFFSET 0.277405 -10.39 0.051239
								CHANNELS 3 Zrotation Xrotation Yrotation
								JOINT Model33
								{
									OFFSET 3.43909 0.282043 -1.86679
									CHANNELS 3 Zrotation Xrotation Yrotation
									JOINT Model34
									{
										OFFSET -13.0269 0 0
										CHANNELS 3 Zrotation Xrotation Yrotation
										JOINT Model35
										{
											OFFSET -10.8866 0 0
											CHANNELS 3 Zrotation Xrotation Yrotation
											JOINT Model36
											{
												OFFSET -16.7317 0 0
												CHANNELS 3 Zrotation Xrotation Yrotation
												JOINT Model37
												{
													OFFSET -11.8292 0 0
													CHANNELS 3 Zrotation Xrotation Yrotation
													JOINT Model38
													{
														OFFSET -4.82751 3.73566 0.836517
														CHANNELS 3 Zrotation Xrotation Yrotation
														JOINT Model39
														{
															OFFSET -3.75311 0.0582886 0.0186462
															CHANNELS 3 Zrotation Xrotation Yrotation
															JOINT Model40
															{
																OFFSET -2.88687 -0.0192337 -0.014801
																CHANNELS 3 Zrotation Xrotation Yrotation
																End Site
																{
																	OFFSET 0 0 0
																}
															}
														}
													}
													JOINT Model41
													{
														OFFSET -9.72198 3.06459 -0.23877
														CHANNELS 3 Zrotation Xrotation Yrotation
														JOINT Model42
														{
															OFFSET -4.6113 0 0
															CHANNELS 3 Zrotation Xrotation Yrotation
															JOINT Model43
															{
																OFFSET -2.89691 0 0
																CHANNELS 3 Zrotation Xrotation Yrotation
																End Site
																{
																	OFFSET 0 0 0
																}
															}
														}
													}
													JOINT Model44
													{
														OFFSET -9.54431 0.745064 -0.588928
														CHANNELS 3 Zrotation Xrotation Yrotation
														JOINT Model45
														{
															OFFSET -5.33978 0 0
															CHANNELS 3 Zrotation Xrotation Yrotation
															JOINT Model46
															{
																OFFSET -3.03619 -1.52588e-005 0
																CHANNELS 3 Zrotation Xrotation Yrotation
																End Site
																{
																	OFFSET 0 0 0
																}
															}
														}
													}
													JOINT Model47
													{
														OFFSET -9.4776 -1.51286 -0.485107
														CHANNELS 3 Zrotation Xrotation Yrotation
														JOINT Model48
														{
															OFFSET -4.96136 -1.52588e-005 0
															CHANNELS 3 Zrotation Xrotation Yrotation
															JOINT Model49
															{
																OFFSET -2.51965 0 0
																CHANNELS 3 Zrotation Xrotation Yrotation
																End Site
																{
																	OFFSET 0 0 0
																}
															}
														}
													}
													JOINT Model50
													{
														OFFSET -9.34247 -3.34118 0.239288
														CHANNELS 3 Zrotation Xrotation Yrotation
														JOINT Model51
														{
															OFFSET -3.28259 -2.28882e-005 0
															CHANNELS 3 Zrotation Xrotation Yrotation
															JOINT Model52
															{
																OFFSET -2.12921 0 0
																CHANNELS 3 Zrotation Xrotation Yrotation
																End Site
																{
																	OFFSET 0 0 0
																}
															}
														}
													}
												}
											}
										}
									}
								}
							}
						}
					}
				}
			}
		}
	}
	JOINT Model53
	{
		OFFSET 4.38025 -2.14632 -1.11517
		CHANNELS 3 Zrotation Xrotation Yrotation
		JOINT Model54
		{
			OFFSET 0 0 4.94998
			CHANNELS 3 Zrotation Xrotation Yrotation
			JOINT Model55
			{
				OFFSET 18.5642 0 0
				CHANNELS 3 Zrotation Xrotation Yrotation
				JOINT Model56
				{
					OFFSET 21.2884 0 0
					CHANNELS 3 Zrotation Xrotation Yrotation
					JOINT Model57
					{
						OFFSET 30.261 0 0
						CHANNELS 3 Zrotation Xrotation Yrotation
						JOINT Model58
						{
							OFFSET 11.7259 0 0
							CHANNELS 3 Zrotation Xrotation Yrotation
							JOINT Model59
							{
								OFFSET 10.682 0 0
								CHANNELS 3 Zrotation Xrotation Yrotation
								End Site
								{
									OFFSET 0 0 0
								}
							}
						}
					}
				}
			}
		}
	}
	JOINT Model60
	{
		OFFSET -4.38025 -2.14632 -1.11517
		CHANNELS 3 Zrotation Xrotation Yrotation
		JOINT Model61
		{
			OFFSET 0 0 -4.94998
			CHANNELS 3 Zrotation Xrotation Yrotation
			JOINT Model62
			{
				OFFSET -18.5642 0 0
				CHANNELS 3 Zrotation Xrotation Yrotation
				JOINT Model63
				{
					OFFSET -21.2884 0 0
					CHANNELS 3 Zrotation Xrotation Yrotation
					JOINT Model64
					{
						OFFSET -30.261 0 0
						CHANNELS 3 Zrotation Xrotation Yrotation
						JOINT Model65
						{
							OFFSET -11.7259 0 0
							CHANNELS 3 Zrotation Xrotation Yrotation
							JOINT Model66
							{
								OFFSET -10.682 0 0
								CHANNELS 3 Zrotation Xrotation Yrotation
								End Site
								{
									OFFSET 0 0 0
								}
							}
						}
					}
				}
			}
		}
	}
}
MOTION
Frames: 4
Frame Time: 0.033333
-318.344 172.665 -351.608 142.006 -84.0067 143.524 -180 4.29621e-031 -90 0.270845 -0.528165 -0.181509 0.540045 -1.05762 -0.360542 0.540045 -1.05718 -0.360546 -7.47451 -0.317568 2.35867 17.8942 0.263329 -1.11458 120.092 75.5343 58.4939 16.0784 28.9481 2.36024 -167.277 84.4999 48.8109 111.064 7.16676 -20.4284 1.88924e-006 16.3787 3.09152e-005 -0.0824601 5.33143 -3.19615 -9.68315e-008 8.06423 -4.64936e-007 1.03222 0.0275674 3.05964 -72.0648 39.0385 39.3397 33.3638 2.10362 14.835 0.588947 0.308273 6.35287 -99.6409 81.413 100.35 -0.0181409 2.77856e-005 -0.117315 -0.124139 0.00241113 -0.799296 -79.8382 79.5773 80.5374 -0.000225788 -0.000220916 2.22023e-005 -0.000956242 0.000122904 -2.731e-005 -66.7416 80.4058 67.2171 -0.000437144 1.59522e-005 -2.73124e-005 -0.00013662 -0.000109282 -5.46302e-005 -6.42159 81.2158 8.01779 -0.000218578 1.69097e-005 0.000212149 0.000901568 -0.0001848 -0.000218553 -59.9282 75.5373 58.5147 9.52345 21.7809 3.49602 -167.277 84.4999 48.8109 125.55 -9.69556 -12.851 7.10415e-006 -0.28288 2.90955e-005 -41.4659 18.7222 0.424683 -9.51266e-006 27.4754 4.57186e-006 15.2416 0.382995 2.86186 -72.0648 39.0385 39.3397 33.3638 2.10361 14.835 0.588946 0.308238 6.35286 -99.6409 81.413 100.35 -0.0181409 3.00747e-005 -0.117315 -0.124139 0.00241113 -0.799296 -79.8382 79.5773 80.5374 -0.000260659 -0.00021857 2.35837e-005 -0.000956243 0.000122991 -2.73027e-005 -66.7416 80.4058 67.2171 -0.000437145 1.48776e-005 -2.73069e-005 -0.000136621 -0.000109288 -5.46228e-005 -6.42159 81.2158 8.01779 -0.000218578 1.95769e-005 0.000212312 0.000901567 -0.000191248 -0.000218545 0.000811311 0.56661 89.91 -8.52462 -6.60203 -11.5547 -9.43279e-008 -1.34467 -7.3805e-010 42.3665 -0.41684 0.201442 -1.17322e-007 -0.704667 -1.13483e-007 -78.251 0.713284 -1.5658 -35.691 -0.557877 0.0282317 -180 -0.566579 -90.09 -26.1066 -2.59481 -8.35223 -4.48858e-007 0.0961993 -1.16312e-008 30.7415 1.08695 -1.2888 3.02689e-007 1.57321 -3.14543e-007 -51.6184 -2.36183 1.44445 -35.4947 -1.85431e-005 1.25702e-006 
-318.326 172.646 -351.662 142.792 -84.2001 144.242 -180 4.29621e-031 -90 0.308603 -0.530545 -0.188289 0.615496 -1.06253 -0.373742 0.615496 -1.06209 -0.373746 -7.85686 -0.15535 2.14045 18.488 0.361029 -1.101 120.092 75.5343 58.4939 16.1067 28.4767 2.27207 -167.277 84.4999 48.8109 110.83 7.20636 -20.2169 1.84981e-006 16.4488 3.09264e-005 0.277493 5.3724 -3.33764 -9.62525e-008 8.13487 -4.65018e-007 0.893207 0.0253997 3.25769 -72.0648 39.0385 39.3397 33.3638 2.10362 14.835 0.588947 0.308273 6.35287 -99.6409 81.413 100.35 -0.0181409 2.77856e-005 -0.117315 -0.124139 0.00241113 -0.799296 -79.8382 79.5773 80.5374 -0.000225788 -0.000220916 2.22023e-005 -0.000956242 0.000122904 -2.731e-005 -66.7416 80.4058 67.2171 -0.000437144 1.59522e-005 -2.73124e-005 -0.00013662 -0.000109282 -5.46302e-005 -6.42159 81.2158 8.01779 -0.000218578 1.69097e-005 0.000212149 0.000901568 -0.0001848 -0.000218553 -59.9282 75.5373 58.5147 10.1145 21.7017 3.27009 -167.277 84.4999 48.8109 125.348 -9.65188 -12.923 7.11101e-006 -0.29639 2.90955e-005 -41.2655 18.8864 0.423399 -9.535e-006 27.7232 4.58221e-006 15.6145 0.5089 3.71025 -72.0648 39.0385 39.3397 33.3638 2.10361 14.835 0.588946 0.308238 6.35286 -99.6409 81.413 100.35 -0.0181409 3.00747e-005 -0.117315 -0.124139 0.00241113 -0.799296 -79.8382 79.5773 80.5374 -0.000260659 -0.00021857 2.35837e-005 -0.000956243 0.000122991 -2.73027e-005 -66.7416 80.4058 67.2171 -0.000437145 1.48776e-005 -2.73069e-005 -0.000136621 -0.000109288 -5.46228e-005 -6.42159 81.2158 8.01779 -0.000218578 1.95769e-005 0.000212312 0.000901567 -0.000191248 -0.000218545 0.000811311 0.56661 89.91 -8.69341 -6.82102 -11.6656 -9.43315e-008 -1.62512 -7.38143e-010 42.4511 -0.29004 0.245642 -1.16946e-007 -0.514615 -1.13479e-007 -78.2161 0.960701 -1.6713 -35.7417 -0.70209 0.0349018 -180 -0.566579 -90.09 -26.3244 -2.40017 -8.31227 -4.48807e-007 0.34388 -1.16314e-008 30.8289 1.01468 -1.24255 3.02093e-007 1.46458 -3.14527e-007 -51.5727 -2.49948 1.5497 -35.4947 -1.8719e-005 1.27052e-006 
-318.282 172.665 -351.647 143.888 -84.4371 145.328 -180 4.29621e-031 -90 0.312457 -0.489028 -0.154436 0.623624 -0.979327 -0.306219 0.623624 -0.97889 -0.306224 -7.57488 0.0136579 1.349 18.365 0.377277 -0.194276 120.092 75.5343 58.4939 15.6125 27.8247 2.36314 -167.277 84.4999 48.8109 110.292 7.76259 -20.1898 1.50751e-006 17.0551 3.10251e-005 0.270608 5.22122 -3.36123 -9.81125e-008 7.90788 -4.64758e-007 0.905515 0.0254364 3.21808 -72.0648 39.0385 39.3397 33.3638 2.10362 14.835 0.588947 0.308273 6.35287 -99.6409 81.413 100.35 -0.0181409 2.77856e-005 -0.117315 -0.124139 0.00241113 -0.799296 -79.8382 79.5773 80.5374 -0.000225788 -0.000220916 2.22023e-005 -0.000956242 0.000122904 -2.731e-005 -66.7416 80.4058 67.2171 -0.000437144 1.59522e-005 -2.73124e-005 -0.00013662 -0.000109282 -5.46302e-005 -6.42159 81.2158 8.01779 -0.000218578 1.69097e-005 0.000212149 0.000901568 -0.0001848 -0.000218553 -59.9282 75.5373 58.5147 10.893 21.9666 3.05043 -167.277 84.4999 48.8109 125.742 -9.73572 -13.1107 7.14165e-006 -0.356728 2.90957e-005 -41.1471 18.9774 0.422623 -9.54743e-006 27.8607 4.58801e-006 15.7259 0.546564 3.95609 -72.0648 39.0385 39.3397 33.3638 2.10361 14.835 0.588946 0.308237 6.35286 -99.6409 81.413 100.35 -0.0181409 3.00747e-005 -0.117315 -0.124139 0.00241113 -0.799296 -79.8382 79.5773 80.5374 -0.000260659 -0.00021857 2.35837e-005 -0.000956243 0.000122991 -2.73027e-005 -66.7416 80.4058 67.2171 -0.000437145 1.48776e-005 -2.73069e-005 -0.000136621 -0.000109288 -5.46228e-005 -6.42159 81.2158 8.01779 -0.000218578 1.95769e-005 0.000212312 0.000901567 -0.000191248 -0.000218545 0.000811311 0.56661 89.91 -8.72125 -6.96283 -11.6816 -9.43342e-008 -1.83287 -7.38224e-010 42.363 -0.25833 0.226042 -1.16851e-007 -0.466895 -1.13478e-007 -78.188 1.0467 -1.70767 -35.7698 -0.782204 0.0384962 -180 -0.566579 -90.09 -26.4261 -2.45494 -8.41071 -4.48817e-007 0.295163 -1.16313e-008 30.686 1.13804 -1.11668 3.0311e-007 1.64987 -3.14555e-007 -51.5567 -2.54034 1.58116 -35.4947 -1.88822e-005 1.28317e-006 
-318.237 172.699 -351.589 143.07 -84.5194 144.584 -180 4.29621e-031 -90 0.297436 -0.484219 -0.0953903 0.594094 -0.969363 -0.188276 0.594094 -0.968926 -0.18828 -7.09603 0.0918941 0.869641 18.098 0.356083 0.287704 120.092 75.5343 58.4939 15.1528 27.3494 2.4656 -167.277 84.4999 48.8109 109.679 8.25349 -20.1674 1.23687e-006 17.5317 3.11055e-005 0.258039 5.05882 -3.32192 -1.00112e-007 7.66359 -4.64487e-007 0.963535 0.0274395 3.26242 -72.0648 39.0385 39.3397 33.3638 2.10362 14.835 0.588947 0.308273 6.35287 -99.6409 81.413 100.35 -0.0181409 2.77856e-005 -0.117315 -0.124139 0.00241113 -0.799296 -79.8382 79.5773 80.5374 -0.000225788 -0.000220916 2.22023e-005 -0.000956242 0.000122904 -2.731e-005 -66.7416 80.4058 67.2171 -0.000437144 1.59522e-005 -2.73124e-005 -0.00013662 -0.000109282 -5.46302e-005 -6.42159 81.2158 8.01779 -0.000218578 1.69097e-005 0.000212149 0.000901568 -0.0001848 -0.000218553 -59.9282 75.5373 58.5147 11.4213 22.1396 2.89837 -167.277 84.4999 48.8109 125.951 -9.78242 -13.2538 7.16514e-006 -0.40299 2.90958e-005 -40.6124 19.1402 0.418481 -9.57e-006 28.1092 4.5986e-006 15.5193 0.464792 3.4099 -72.0648 39.0385 39.3397 33.3638 2.10361 14.835 0.588946 0.308237 6.35286 -99.6409 81.413 100.35 -0.0181409 3.00747e-005 -0.117315 -0.124139 0.00241113 -0.799296 -79.8382 79.5773 80.5374 -0.000260659 -0.00021857 2.35837e-005 -0.000956243 0.000122991 -2.73027e-005 -66.7416 80.4058 67.2171 -0.000437145 1.48776e-005 -2.73069e-005 -0.000136621 -0.000109288 -5.46228e-005 -6.42159 81.2158 8.01779 -0.000218578 1.95769e-005 0.000212312 0.000901567 -0.000191248 -0.000218545 0.000811311 0.56661 89.91 -8.73258 -6.88117 -11.6052 -9.43333e-008 -1.76803 -7.38198e-010 42.2594 -0.324306 0.154677 -1.17047e-007 -0.565679 -1.1348e-007 -78.1711 0.910168 -1.64857 -35.7758 -0.799209 0.0392493 -180 -0.566579 -90.09 -26.4013 -2.63437 -8.52756 -4.4886e-007 0.0829186 -1.16312e-008 30.4873 1.26093 -1.01489 3.04125e-007 1.83458 -3.14586e-007 -51.5914 -2.43457 1.50026 -35.4947 -1.90323e-005 1.29492e-006 
